<?xml version="1.0" standalone="no"?>
<!DOCTYPE svg PUBLIC "-//W3C//DTD SVG 1.1//EN" "http://www.w3.org/Graphics/SVG/1.1/DTD/svg11.dtd" >
<!--
2013-9-30: Created.
-->
<svg>
<metadata>
Created by iconfont
</metadata>
<defs>

<font id="iconfont" horiz-adv-x="1024" >
  <font-face
    font-family="iconfont"
    font-weight="500"
    font-stretch="normal"
    units-per-em="1024"
    ascent="896"
    descent="-128"
  />
    <missing-glyph />
    
    <glyph glyph-name="x" unicode="x" horiz-adv-x="1001"
d="M281 543q-27 -1 -53 -1h-83q-18 0 -36.5 -6t-32.5 -18.5t-23 -32t-9 -45.5v-76h912v41q0 16 -0.5 30t-0.5 18q0 13 -5 29t-17 29.5t-31.5 22.5t-49.5 9h-133v-97h-438v97zM955 310v-52q0 -23 0.5 -52t0.5 -58t-10.5 -47.5t-26 -30t-33 -16t-31.5 -4.5q-14 -1 -29.5 -0.5
t-29.5 0.5h-32l-45 128h-439l-44 -128h-29h-34q-20 0 -45 1q-25 0 -41 9.5t-25.5 23t-13.5 29.5t-4 30v167h911zM163 247q-12 0 -21 -8.5t-9 -21.5t9 -21.5t21 -8.5q13 0 22 8.5t9 21.5t-9 21.5t-22 8.5zM316 123q-8 -26 -14 -48q-5 -19 -10.5 -37t-7.5 -25t-3 -15t1 -14.5
t9.5 -10.5t21.5 -4h37h67h81h80h64h36q23 0 34 12t2 38q-5 13 -9.5 30.5t-9.5 34.5q-5 19 -11 39h-368zM336 498v228q0 11 2.5 23t10 21.5t20.5 15.5t34 6h188q31 0 51.5 -14.5t20.5 -52.5v-227h-327z" />
    

    
    <glyph glyph-name="tabs-home" unicode="&#58899;" d="M512 721.5c0 0-231.975-200.25-361.631-308.7-7.594-6.919-13.387-16.931-13.387-28.8 0-20.756 16.762-37.519 37.519-37.519h74.981v-262.519c0-20.756 16.762-37.519 37.519-37.519h112.5c20.756 0 37.519 16.819 37.519 37.519v150.019h150.019v-150.019c0-20.7 16.762-37.519 37.519-37.519h112.5c20.756 0 37.519 16.763 37.519 37.519v262.519h74.981c20.756 0 37.519 16.762 37.519 37.519 0 11.869-5.794 21.881-14.344 28.8-128.756 108.45-360.619 308.7-360.619 308.7z"  horiz-adv-x="1024" />

    
    <glyph glyph-name="search" unicode="&#58919;" d="M883.989 69.272l-215.803 217.224c87.743 115.893 78.8 281.678-26.873 387.35-115.493 115.493-302.746 115.493-418.239 0-115.493-115.467-115.493-302.721 0-418.213 105.635-105.635 271.289-114.629 387.174-27.030l215.85-217.246c7.091-7.090 18.624-7.090 25.716 0l32.177 32.177c7.118 7.118 7.118 18.648-0.001 25.739zM277.865 308.821c-84.813 84.813-84.813 222.318 0 307.105 84.814 84.813 222.293 84.813 307.106 0 84.814-84.787 84.814-222.293 0-307.105-84.815-84.814-222.293-84.814-307.106 0z"  horiz-adv-x="1024" />

    
    <glyph glyph-name="close" unicode="&#58913;" d="M512 762.059c-208.783 0-378.059-169.275-378.059-378.059s169.275-378.059 378.059-378.059c208.783 0 378.059 169.275 378.059 378.059 0 208.783-169.275 378.059-378.059 378.059zM686.852 278.237c18.949-18.997 18.949-49.951 0-68.949-9.499-9.499-21.36-14.225-35.68-14.225-11.862 0-23.723 4.725-33.223 14.225l-106.565 106.565-107.416-106.517c-9.546-9.547-21.455-14.272-33.316-14.272-11.908 0-23.818 4.725-33.317 14.272-18.998 19.045-18.998 49.997 0 68.996l105.809 105.81-105.667 105.621c-18.998 18.997-18.998 49.904 0 68.901 19.045 18.998 49.905 18.998 68.949 0l105.621-105.667 105.997 105.997c18.997 19.045 49.951 19.045 69.044 0 18.949-18.998 18.949-49.951 0-68.949l-106.469-105.572 106.235-106.235z"  horiz-adv-x="1024" />

    
    <glyph glyph-name="cube" unicode="&#58905;" d="M342.796 288.44c-5.809-2.389-10.314 0-10.314 0l-112.337 73.434v77.063l122.606-74.917c0 0 2.745-1.321 4.343-3.945s1.601-5.638 1.601-5.638v-56.468c-0.001-0.001-0.108-7.194-5.912-9.595zM139.634 513.436c6.233 1.5 8.742-0.148 8.742-0.148l79.321-48.848v-137.044l-89.471 58.873c0 0-3.141 2.899-3.732 3.851-0.584 0.957-1.157 5.235-1.157 5.235v109.747c0 0.001 1.408 7.155 6.306 8.322zM455.447 573.055c-2.836 8.506 3.53 12.485 3.53 12.485l52.195 20.997c0 0 2.899 2.514 6.862 2.548 3.2 0.003 4.791-1.12 4.791-1.12l201.571-77.132c0 0 3.47-1.449 5.266-4.003s1.76-6.052 1.76-6.052l0.218-366.259c0 0 0.841-0.001-1.408-5.31-0.787-1.821-3.092-3.675-3.092-3.675l-86.484-77.334 0.471 412.316c0 0 0.321 1.984-1.239 5.036-1.235 2.388-4.856 4.871-4.856 4.871l-175.092 77.174c0 0-2.929 0.768-4.488 5.451zM134.141 356.658l280.543-174.462c0 0 5.349-3.355 11.288-0.535 4.66 2.211 5.916 9.59 5.916 9.59l0.139 168.61c0 0-0.003 2.075-1.372 4.936s-2.838 3.471-2.838 3.471l-289.962 177.164c0 0-4.554 3.075-4.554 9.041 0 5.912-3.95 4.701-3.95 4.701l379.639 202.565c0 0 13.505 6.571 14.876 6.571 3.752 0 6.221-1.994 6.221-1.994l350.308-144.643c2.74-2.262 3.813-3.847 4.211-4.632 0.442-0.897 0.838-2.12 1.157-6.455l-0.139-331.889c0 0-1.236-4.247-3.702-7.058s-5.451-4.092-5.451-4.092l-79.436-67.722 1.086 352.996c-0.32 2.678-0.675 4.553-1.086 5.53-0.414 1.017-1.604 2.511-3.53 4.403l-265.334 115.145c-1.601 0.547-2.857 0.841-3.702 0.841 0 0 0 0-4.183-0.414l-197.726-103.845c0 0-4.514-2.938-4.514-10.242 0-3.2 4.382-7.043 4.382-7.043l226.538-121.816c0 0 1.262-1.635 1.894-3.028 1.238-2.678 1.12-4.514 1.12-4.514l-0.247-418.361c0 0-1.601-11.639-15.231-8.935l-396.403 255.736c0 0-1.775 0.536-4.103 3.732s-1.869 6.154-1.869 6.154v90.428z"  horiz-adv-x="1024" />

    
    <glyph glyph-name="triangle-down" unicode="&#58889;" d="M890.059 573.032l-378.079-377.994-378.038 377.994h756.118z"  horiz-adv-x="1024" />

    
    <glyph glyph-name="home" unicode="&#58885;" d="M738.722 382.822c-14.78 0-26.751-11.984-26.751-26.751v-236.701c-1.953-35.994-11.825-43.685-46.428-45.29l-302.845-0.228c-39.673 1.11-50.454 8.105-52.005 50.454v231.766c0 14.766-11.984 26.751-26.751 26.751-14.78 0-26.751-11.984-26.751-26.751v-281.939c0-35.085 26.485-52.433 61.583-52.433h31.768v-0.281l351.36 0.281c35.085 0 63.509 17.349 63.509 52.433v33.721h0.080v248.217c-0.014 14.78-11.998 26.751-26.765 26.751zM884.427 386.77l-349.232 348.215c-0.937 1.753-2.154 3.424-3.666 4.949-6.448 6.448-14.311 8.453-22.11 7.235-6.006-0.333-11.918-2.782-17.109-7.972-0.175-0.174-0.268-0.388-0.429-0.575-0.937-0.802-1.899-1.524-2.782-2.421l-350.945-349.941c-12.399-12.399-13.657-22.565-1.244-34.952 12.399-12.413 25.053-13.657 37.452-1.257l337.208 331.429 339.121-330.92c12.413-12.413 25.053-11.155 37.465 1.257 12.386 12.386 8.682 22.539-3.731 34.952zM685.218 663.717h80.255v-80.255c0-14.766 11.97-26.751 26.751-26.751 14.766 0 26.751 11.984 26.751 26.751v107.006c0 14.766-11.984 26.751-26.751 26.751h-107.006c-14.78 0-26.751-11.984-26.751-26.751s11.97-26.751 26.751-26.751z"  horiz-adv-x="1024" />

    
    <glyph glyph-name="gongju" unicode="&#58924;" d="M867.778 125.545l-149.147 149.147 19.898 19.912-19.884 19.884-59.639-59.653-99.464 99.45 119.503 119.517c15.919-5.667 32.555-8.536 49.627-8.536 39.389 0 76.43 15.342 104.287 43.172 42.989 43.017 55.181 106.931 31.064 162.844l-8.198 19.041-64.097-64.097-51.609-0.703 0.689 49.219 65.334 65.32-18.984 8.227c-18.633 8.058-38.419 12.15-58.809 12.15-39.403 0-76.43-15.342-104.245-43.186-40.781-40.753-53.887-100.294-34.594-154.041l-119.461-119.461-169.059 169.031 19.898 19.884-109.35 109.35-59.709-59.625 109.392-109.378 19.87 19.884 169.059-169.031-119.461-119.461c-15.961 5.709-32.667 8.592-49.795 8.592-39.389 0-76.43-15.356-104.259-43.2-43.073-43.045-55.252-107.058-31.008-163.041l8.227-18.984 65.334 65.334 49.205 0.661-0.703-51.609-64.097-64.097 19.041-8.184c18.577-8.016 38.292-12.080 58.584-12.080 39.403 0 76.416 15.328 104.245 43.172 40.725 40.725 53.831 100.195 34.664 153.858l119.531 119.531 99.464-99.422-59.681-59.681 19.884-19.884 19.884 19.884 149.133-149.133c13.275-13.289 30.952-20.602 49.725-20.602s36.436 7.313 49.725 20.602c27.408 27.408 27.394 72.014-0.014 99.422zM191.625 682.392l19.898 19.856 69.581-69.581-19.884-19.884-69.595 69.609zM390.75 212.691c19.505-45.267 9.619-97.031-25.186-131.836-22.528-22.528-52.467-34.931-84.361-34.931-9.155 0-18.169 1.012-26.944 3.052l41.372 41.386 1.252 91.927-89.522-1.209-42.708-42.708c-9.394 39.825 2.137 81.844 31.866 111.544 22.542 22.556 52.495 34.959 84.375 34.959 16.523 0 32.527-3.319 47.63-9.858l8.775-3.797 285.384 285.37-3.797 8.775c-19.631 45.338-9.759 97.13 25.102 131.991 22.528 22.542 52.481 34.945 84.361 34.945 9.239 0 18.323-1.041 27.183-3.094l-42.68-42.68-1.237-89.536 91.927 1.252 41.414 41.4c9.281-39.755-2.264-81.703-31.894-111.347-22.556-22.528-52.509-34.931-84.403-34.931-16.467 0-32.442 3.291-47.503 9.773l-8.761 3.783-285.427-285.469 3.783-8.761zM847.908 46.008c-7.973-7.959-18.577-12.361-29.841-12.361-11.278 0-21.867 4.402-29.841 12.361l-149.147 149.133 59.653 59.653 149.147-149.133c16.467-16.453 16.467-43.2 0.028-59.653z"  horiz-adv-x="1024" />

    
    <glyph glyph-name="close1" unicode="&#58894;" d="M391.8 534.593l121.165-121.161 121.165 121.161 29.076-29.076-121.165-121.17 121.165-121.165-29.076-29.076-121.165 121.165-121.165-121.165-29.082 29.076 121.165 121.165-121.165 121.17 29.082 29.076zM512.975 0.509c-81.935 0-157.809 25.753-220.146 69.493l25.868 32.057c55.225-38.080 122.127-60.424 194.277-60.424 189.27 0 342.707 153.438 342.707 342.707 0 189.273-153.438 342.715-342.707 342.715-189.273 0-342.712-153.441-342.712-342.715 0-72.833 22.789-140.306 61.528-195.83l-28.993-30.178c-46.282 63.404-73.664 141.494-73.664 226.009 0 211.989 171.853 383.842 383.839 383.842s383.839-171.853 383.839-383.842c-0.001-211.985-171.853-383.833-383.839-383.833z"  horiz-adv-x="1024" />

    
    <glyph glyph-name="add" unicode="&#58917;" d="M872.338 414.427h-330.105v329.915c0 16.565-13.829 30.023-30.427 30.023s-30.427-13.46-30.427-30.023v-329.915h-329.723c-16.565 0-30.025-13.829-30.025-30.427 0-16.601 13.461-30.427 30.025-30.427h329.722v-329.913c0-16.565 13.827-30.026 30.427-30.026 16.598 0 30.427 13.463 30.427 30.026v329.914h330.106c16.565 0 30.030 13.825 30.030 30.427 0 16.598-13.465 30.426-30.030 30.426z"  horiz-adv-x="1024" />

    
    <glyph glyph-name="del" unicode="&#58925;" d="M158.966 609.111h73.191l34.072-600.242c0.684-12.481 11.044-22.251 23.548-22.251h446.73c12.506 0 22.865 9.792 23.548 22.273l33.529 600.22h73.24c13.048 0 23.597 10.57 23.597 23.594 0 13.026-10.549 23.596-23.597 23.596h-184.777l-11.522 61.748c0 13.026-10.547 23.597-23.598 23.597h-268.092c-13.048 0-23.595-10.571-23.595-23.597l-11.522-61.748h-184.733c-13.049 0-23.596-10.57-23.596-23.596 0-13.025 10.524-23.595 23.573-23.595zM402.432 694.454h220.902l11.521-38.154h-243.944l11.522 38.154zM746.323 609.111l-32.136-575.326h-402.113l-32.657 575.325h466.905zM396.050 78.027c0.472 0 0.896 0 1.369 0.022 13.025 0.731 22.957 11.892 22.204 24.895l-24.822 437.338c-0.732 13.025-12.2 22.817-24.894 22.226-13.024-0.732-22.958-11.891-22.204-24.893l24.823-437.338c0.708-12.553 11.114-22.252 23.525-22.252zM627.52 78.049c0.473-0.022 0.898-0.022 1.369-0.022 12.411 0 22.817 9.697 23.526 22.252l24.822 437.338c0.732 13.001-9.202 24.16-22.203 24.893-12.814 0.543-24.139-9.202-24.894-22.226l-24.822-437.338c-0.732-13.002 9.203-24.163 22.202-24.895zM512.895 78.027c13.049 0 23.596 10.569 23.596 23.595v437.339c0 13.024-10.547 23.596-23.596 23.596-13.048 0-23.595-10.572-23.595-23.596v-437.339c0-13.026 10.547-23.595 23.595-23.595z"  horiz-adv-x="1024" />

    
    <glyph glyph-name="full-screen" unicode="&#58916;" d="M723.83 185.984h-428.428c-32.281 0-58.541 26.29-58.541 58.541v278.949c0 32.223 26.26 58.541 58.541 58.541h428.428c32.281 0 58.541-26.29 58.541-58.541v-278.949c0-32.223-26.231-58.541-58.541-58.541zM295.401 523.475v-278.949h428.487l-0.058 278.949h-428.428zM192.482 78.529h140.637c16.169 0 29.257 13.086 29.257 29.284 0 16.169-13.086 29.257-29.257 29.257h-140.637v137.089c0 16.169-13.086 29.284-29.257 29.284s-29.284-13.145-29.284-29.284v-137.089c0-32.252 26.26-58.541 58.541-58.541zM860.774 303.386c-16.169 0-29.257-13.086-29.257-29.257v-137.062h-140.608c-16.199 0-29.284-13.086-29.284-29.257 0-16.199 13.086-29.284 29.284-29.284h140.608c32.281 0 58.541 26.26 58.541 58.541v137.062c0 16.139-13.086 29.257-29.284 29.257zM133.941 630.931v-137.089c0-16.139 13.086-29.257 29.257-29.257s29.257 13.114 29.257 29.257v137.089h140.638c16.169 0 29.257 13.086 29.257 29.257s-13.086 29.257-29.257 29.257h-140.608c-32.281 0.030-58.541-26.26-58.541-58.511zM890.059 493.869v137.062c0 32.252-26.231 58.541-58.541 58.541h-140.608c-16.199 0-29.284-13.086-29.284-29.257s13.086-29.257 29.284-29.257h140.608v-137.062c0-16.139 13.086-29.228 29.257-29.228 16.199-0.058 29.284 13.058 29.284 29.199z"  horiz-adv-x="1024" />

    
    <glyph glyph-name="setting" unicode="&#58898;" d="M512.001 509.897c-68.955 0-124.855-56.366-124.855-125.9 0-69.525 55.899-125.889 124.855-125.889 68.953 0 124.854 56.365 124.854 125.889 0 69.534-55.899 125.9-124.854 125.9zM512.001 308.465c-41.374 0-74.914 33.816-74.914 75.531 0 41.719 33.54 75.541 74.914 75.541 41.372 0 74.911-33.82 74.911-75.541 0-41.715-33.54-75.531-74.911-75.531zM864.697 294.968l-58.477 34.044c3.278 17.876 5.428 36.141 5.428 54.984 0 18.847-2.151 37.112-5.43 54.989l58.477 34.046c23.886 13.904 32.070 44.704 18.281 68.787l-49.942 87.224c-13.79 24.088-44.336 32.34-68.223 18.435l-59.078-34.39c-27.603 23.694-58.979 43.053-93.851 55.503v42.737c0 27.813-22.36 50.36-49.943 50.36h-99.882c-27.581 0-49.942-22.549-49.942-50.36v-42.737c-34.874-12.449-66.249-31.81-93.852-55.503l-59.078 34.39c-23.888 13.905-54.432 5.654-68.22-18.435l-49.942-87.225c-13.79-24.081-5.607-54.882 18.281-68.787l58.478-34.044c-3.278-17.881-5.428-36.145-5.428-54.992 0-18.842 2.15-37.11 5.428-54.984l-58.478-34.044c-23.886-13.904-32.070-44.704-18.281-68.788l49.943-87.224c13.789-24.081 44.334-32.336 68.22-18.432l59.076 34.394c27.603-23.694 58.979-43.055 93.852-55.506v-42.74c0-27.81 22.36-50.358 49.942-50.358h99.885c27.581 0 49.943 22.549 49.943 50.358v42.739c34.874 12.449 66.249 31.811 93.852 55.506l59.076-34.394c23.888-13.904 54.434-5.651 68.223 18.431l49.942 87.224c13.789 24.083 5.606 54.884-18.282 68.789zM827.24 229.553l-24.97-43.61c-6.896-12.046-22.169-16.172-34.112-9.215l-69.378 40.389c-35.217-40.054-82.811-68.787-136.839-79.848v-55.418c0-13.904-11.178-25.178-24.97-25.178h-49.943c-13.791 0-24.97 11.274-24.97 25.178v55.418c-54.030 11.062-101.621 39.794-136.839 79.848l-69.378-40.389c-11.943-6.956-27.215-2.829-34.112 9.215l-24.969 43.61c-6.897 12.043-2.803 27.442 9.14 34.391l69.658 40.553c-8.299 25.049-13.267 51.633-13.267 79.496 0 27.867 4.969 54.454 13.267 79.504l-69.659 40.552c-11.943 6.951-16.036 22.354-9.14 34.391l24.969 43.613c6.897 12.041 22.169 16.169 34.112 9.217l69.381-40.393c35.217 40.055 82.808 68.79 136.836 79.853v55.414c0 13.905 11.178 25.175 24.97 25.175h49.943c13.791 0 24.97-11.269 24.97-25.175v-55.414c54.029-11.062 101.62-39.795 136.836-79.853l69.381 40.393c11.943 6.951 27.215 2.823 34.112-9.217l24.97-43.613c6.896-12.039 2.803-27.442-9.14-34.391l-69.659-40.553c8.299-25.050 13.267-51.635 13.267-79.502 0-27.864-4.968-54.448-13.267-79.496l69.659-40.553c11.943-6.952 16.035-22.35 9.14-34.392z"  horiz-adv-x="1024" />

    
    <glyph glyph-name="modify-pwd" unicode="&#58884;" d="M285.165 5.941l352.856 352.856h151.223l100.816 100.816v100.816l-50.407 50.407-100.816-100.816h-100.816v100.816l100.816 100.816-50.407 50.407h-100.816l-100.816-100.816v-151.223l-352.856-352.856v-100.816l50.407-50.407h100.816z"  horiz-adv-x="1024" />

    
    <glyph glyph-name="measure" unicode="&#58918;" d="M537.311 137.199c-17.138 0-33.709 0-50.728 0 0 1.527 0 2.954 0 4.378 0 98.674-0.018 144.016 0.088 242.689 0.008 3.578-1.043 4.585-4.5 5.177-75.352 12.387-134.843 73.536-145.11 148.948-12.899 94.73 51.222 182.113 145.396 198.181 97.425 16.606 189.652-50.312 204.184-148.115 14.105-95.025-51.343-184.318-146.074-199.294-0.99-0.14-1.972-0.4-3.256-0.661-0.001-101.489-0.001-149.574-0.001-251.306zM511.843 638.143c0.018 27.71-22.54 50.327-50.25 50.361-27.726 0.035-50.257-22.496-50.257-50.293 0-27.865 22.366-50.293 50.189-50.293 27.796-0.018 50.311 22.462 50.319 50.222zM587.551 233.111c0 16.833 0 33.631 0 50.969 4.743-0.572 9.354-1.094 13.949-1.719 33.589-4.69 66.596-11.865 98.517-23.521 26.45-9.659 51.543-21.906 73.259-40.199 17.972-15.149 32.009-33.11 37.906-56.251 8.73-34.292 0.599-64.815-22.375-91.412-16.626-19.283-37.637-32.676-60.351-43.587-29.368-14.105-60.37-23.192-92.218-29.549-39.903-7.957-80.19-11.761-120.919-11.605-27.056 0.104-54.020 0.869-80.876 4.171-47.487 5.802-93.862 15.861-137.474 36.29-22.602 10.58-43.43 23.801-60.325 42.509-19.866 21.994-29.48 47.635-26.814 77.374 1.989 22.098 11.275 41.069 25.893 57.536 17.294 19.493 38.82 33.024 62.156 43.951 31.765 14.871 65.302 24.042 99.689 30.244 12.125 2.188 24.365 3.7 36.55 5.506 0.651 0.104 1.311 0.069 2.163 0.121 0-17.007 0-33.893 0-51.092-6.394-0.957-12.795-1.842-19.16-2.902-36.386-6.063-71.92-15.010-105.023-31.844-13.76-7.017-26.649-15.322-37.116-26.892-20.108-22.236-19.925-46.801 0.505-68.759 12.586-13.55 28.159-22.81 44.715-30.506 30.288-14.105 62.366-22.236 95.173-27.745 39.956-6.723 80.216-8.755 120.641-7.21 47.783 1.841 94.827 8.425 140.298 23.956 21.394 7.314 42.040 16.313 59.873 30.506 6.254 4.985 12.204 10.719 17.077 17.024 14.663 18.92 14.105 39.939-0.834 58.631-10.955 13.69-25.233 23.104-40.599 30.992-27.232 13.968-56.329 22.412-86.21 28.387-12.501 2.502-25.139 4.398-38.073 6.62z"  horiz-adv-x="1024" />

    
    <glyph glyph-name="cowboy" unicode="&#58906;" d="M722.211 567.852c44.060 18.181 0 124.687 0 124.687-23.321 88.325-72.55 51.962-72.55 51.962-36.278-25.966-124.34-51.961-124.34-51.961 18.126-28.58 113.97-51.961 113.97-51.961-137.32-7.785-227.996 72.754-227.996 72.754-2.555 12.984-31.076 20.767-31.076 20.767-77.723-15.568-62.155-166.249-62.155-166.249 222.798-85.738 404.15 0 404.15 0zM877.655 474.329c46.616 59.744-41.446 103.92-41.446 103.92-69.938 41.562-41.476-20.795-41.476-20.795 10.397-57.159-31.076-62.358-31.076-62.358-253.905-77.926-424.888-10.397-424.888-10.397-108.83 15.597-72.524 93.551-72.524 93.551-98.459 20.767-124.368-20.795-124.368-20.795-69.939-116.903 279.812-176.674 279.812-176.674 398.951-15.569 455.965 93.55 455.965 93.55zM400.952 245.693c0 0 82.89-122.102 217.628-72.728 0 0 106.215 59.744 186.551 187.045 0 0-305.717-93.523-528.545 20.767 0 0 80.336-155.852 373.073-103.893 0.001 0-46.615-51.961-248.706-31.192zM235.138 339.215c-28.493-150.68 0-145.483 0-145.483 15.538-36.364 134.735 31.193 134.735 31.193-51.815 12.984-134.735 114.289-134.735 114.289zM742.918 214.529c0 0 80.336-38.977 134.736-10.396 0 0 7.755 75.341-10.369 145.483 0-0.001-106.215-122.101-124.37-135.086zM639.288 131.404c0 0-38.86-31.192-113.97-10.396 0 0-150.274 88.324-165.842 41.562 0 0 51.814-5.201 114.028-72.729 0 0 80.279-103.95 155.444-31.193 0 0 49.201 72.755 124.339 103.921 0.001 0-38.832 31.163-113.999-31.165z"  horiz-adv-x="1024" />

    
    <glyph glyph-name="user-info" unicode="&#58890;" d="M722.348 536.481c0 122.435-98.844 221.705-220.764 221.705-121.944 0-220.787-99.27-220.787-221.705 0-122.47 98.844-221.74 220.787-221.74 121.922 0 220.764 99.27 220.764 221.74zM319.192 536.481c0 101.134 81.669 183.128 182.391 183.128 100.716 0 182.369-82 182.369-183.128 0-101.171-81.653-183.171-182.369-183.171-100.73 0.006-182.391 82-182.391 183.171zM127.206 25.558v-19.278h767.923v19.278c0 173.106-177.651 327.759-383.944 327.759-12.428 0-24.754-0.512-37.016-1.496-10.593-0.882 16.944-10.181 17.803-20.772 11.207 0.903 7.833-16.293 19.212-16.293 186.214 0 345.548-138.705 345.548-289.19l19.212 19.321h-729.52l19.198-19.321c0 102.405 64.351 195.989 168.020 248.121 9.451 4.783 13.31 16.359 8.583 25.881-4.783 9.501-16.293 13.366-25.773 8.583-116.062-58.339-189.246-164.761-189.246-282.592z"  horiz-adv-x="1024" />

    
    <glyph glyph-name="oprate-count" unicode="&#58886;" d="M882.789 343.584v84.382l-102.252 33.369-24.101 58.211 46.34 98.014-59.691 59.717-95.869-48.764-58.211 24.127-36.587 102.125h-84.382l-3.881-11.948-29.488-90.329-58.16-24.076-98.092 46.287-59.691-59.641 5.693-11.182 43.045-84.764-24.076-58.133-102.125-36.611v-84.407l102.277-33.369 24.076-58.185-46.314-98.039 59.641-59.691 11.182 5.693 84.737 43.045 58.185-24.101 36.561-102.099h84.431l3.881 11.923 29.463 90.329 58.185 24.101 98.065-46.365 59.691 59.717-5.693 11.183-43.045 84.686 24.101 58.211 102.099 36.586zM511.975 265.816c-65.258 0-118.159 52.9-118.159 118.184 0 65.258 52.9 118.159 118.159 118.159 65.309 0 118.184-52.9 118.184-118.159 0-65.284-52.875-118.184-118.184-118.184z"  horiz-adv-x="1024" />

    
    <glyph glyph-name="forward-btn" unicode="&#58986;" d="M511.708 101.785l385.077 309.895-385.078 302.561zM127.214 101.788l385.077 309.895-385.077 302.561z"  horiz-adv-x="1024" />

    
    <glyph glyph-name="minus" unicode="&#58922;" d="M843.864 347.112h-663.984c-20.364 0-36.892 16.526-36.892 36.885 0 20.364 16.526 36.892 36.892 36.892h663.984c20.404 0 36.892-16.526 36.892-36.892 0-20.36-16.487-36.885-36.892-36.885v0zM843.864 347.112z"  horiz-adv-x="1024" />

    
    <glyph glyph-name="lianjie" unicode="&#58914;" d="M379.063827 18.743268c-20.446681-20.383236-53.599755-20.383236-74.112951 0l-74.18049 74.179466c-20.446681 20.511149-20.446681 53.66627 0 74.17742l95.916537 95.853092 90.046852 90.046852c-40.184211 23.736611-92.626607 18.577101-127.136585-15.869433L156.656411 204.126442c-40.959877-40.896432-40.959877-107.333564 0-148.229996L267.860119-55.306238c40.959877-41.024345 107.333564-41.024345 148.294464 0l132.940778 132.87631c34.509978 34.446533 39.542598 86.951351 15.931854 127.201054L379.063827 18.743268 379.063827 18.743268 379.063827 18.743268zM867.355869 544.188488 756.152161 655.392196c-40.959877 40.893362-107.334587 40.893362-148.294464 0L474.917942 522.384903c-34.509978-34.443463-39.540552-86.820368-15.932878-127.07007l185.964412 185.897897c20.445658 20.513196 53.602825 20.513196 74.113975 0l74.113975-74.17742c20.513196-20.513196 20.513196-53.66627 0-74.179466L607.277482 246.956923c40.186258-23.608697 92.62763-18.576077 127.134539 15.997346l132.942825 132.87631C908.312676 436.854924 908.312676 503.164143 867.355869 544.188488L867.355869 544.188488 867.355869 544.188488zM369.841791 176.388704l18.510586-18.576077c15.352663-15.350616 40.249703-15.350616 55.602366 0l210.216769 210.280214c15.414061 15.352663 15.414061 40.249703 0 55.603389l-18.512632 18.577101c-15.352663 15.350616-40.249703 15.350616-55.603389 0L369.841791 231.992093C354.425683 216.63943 354.425683 191.742391 369.841791 176.388704L369.841791 176.388704 369.841791 176.388704zM369.841791 176.388704"  horiz-adv-x="1024" />

    
    <glyph glyph-name="alarm" unicode="&#58908;" d="M586.295 690.822c0 36.87-32.415 66.87-72.435 66.87-39.915 0-72.435-29.94-72.435-66.87 0-3.75 0.33-7.455 0.975-11.055-100.020-32.175-182.1-131.010-182.1-247.95v-92.055c0 0 0-132.615-35.265-133.755-21.060 0-37.185-14.985-37.185-33.45 0-18.555 16.215-33.405 36.225-33.405h579.555c20.115 0 36.225 14.955 36.225 33.405 0 18.601-16.201 33.45-36.225 33.45-36.21 0-36.21 132.81-36.21 132.81v93.001c0 117.090-76.74 215.955-182.115 248.055 0.66 3.54 0.99 7.215 0.99 10.95zM622.55 105.732c-0.121-55.425-48.33-100.35-108.69-100.35-59.94 0-108.57 44.715-108.69 100.35h217.38z"  horiz-adv-x="1024" />

    
    <glyph glyph-name="add-water" unicode="&#58928;" d="M171.748 762.059l75.611-689.956c3.782-37.806 35.913-66.161 75.614-66.161h378.056c37.805 0 69.938 28.355 75.611 66.161l75.609 689.956h-680.502zM512 119.361c-62.379 0-113.415 51.035-113.415 113.413 0 75.612 113.415 204.153 113.415 204.153s113.42-128.541 113.42-204.153c0.001-62.378-51.039-113.413-113.42-113.413v0zM752.066 535.222h-478.241l-17.011 151.225h512.27l-17.017-151.225zM752.066 535.222z"  horiz-adv-x="1024" />

    
    <glyph glyph-name="pool" unicode="&#58929;" d="M837.393 414.229v-45.393h15.131v-287.486h-605.232v287.486h75.655v45.393h-121.047v-378.27h696.017v378.27zM221.331 652.14c-5.91-5.992-5.91-15.736 0-21.729 5.895-6.007 15.485-6.007 21.41 0 5.91 5.992 5.91 15.736 0 21.729-5.923 6.007-15.514 6.007-21.41 0zM221.183 606.733c-5.895-5.91-5.895-15.485 0-21.396 5.91-5.902 15.5-5.902 21.41 0 5.91 5.91 5.91 15.485 0 21.396-5.908 5.91-15.498 5.91-21.41 0zM175.864 591.72c-5.91-6.015-5.91-15.736 0-21.743 5.91-6.007 15.485-6.007 21.395 0 5.91 6.007 5.91 15.751 0 21.743-5.909 6.006-15.483 6.006-21.395 0zM221.109 561.267c-5.999-5.904-5.999-15.501 0-21.396 6-5.902 15.751-5.902 21.751 0 6 5.895 6 15.492 0 21.396-5.996 5.91-15.749 5.91-21.751 0zM130.517 606.791c-5.91-5.992-5.91-15.736 0-21.736 5.895-6.013 15.501-6.013 21.411 0 5.91 5.997 5.91 15.744 0 21.736-5.91 5.999-15.515 5.999-21.411 0zM197.408 615.383c5.91 5.902 5.91 15.492 0 21.388-5.91 5.91-15.485 5.91-21.41 0-5.91-5.895-5.91-15.485 0-21.388 5.909-5.918 15.498-5.918 21.41 0zM800.778 427.099l-18.736-18.722-256.87 256.788 18.737 18.714-21.412 21.395-28.65-28.621c-23.33 18.773-51.775 28.089-81.447 26.419-23.642-1.322-46.869-9.524-67.527-23.502l-52.485 52.469-40.131-40.14 52.219-52.204c-14.63-21.041-23.229-44.86-24.589-69.085-1.684-29.664 7.656-58.086 26.434-81.432l-32.656-32.639 21.413-21.418 21.394 21.418 256.87-256.788-21.41-21.389 21.41-21.41 248.83 248.749-21.395 21.395zM310.106 568.904c1.434 25.326 13.314 50.372 33.467 70.512 20.125 20.141 45.186 32.020 70.526 33.438 21.321 1.212 41.181-4.906 58.203-17.738l-144.435-144.395c-12.841 17.023-18.957 36.874-17.762 58.181zM337.885 477.938l165.891 165.83 256.869-256.787-165.906-165.832-256.854 256.788zM489.384 550.407l181.569-181.569-60.522-60.523-181.569 181.57 60.522 60.522z"  horiz-adv-x="1024" />

    
    <glyph glyph-name="user-img" unicode="&#58891;" d="M515.806 17.227c-86.072 0-169.673 30.009-235.822 84.737-9.146 7.564-17.995 15.623-26.252 23.928-69.955 70.005-108.418 163.048-108.369 262.024 0.050 98.977 38.611 191.97 108.616 261.924 69.955 69.907 162.95 108.369 261.826 108.369 0.098 0 0.148 0 0.198 0 98.976-0.050 191.97-38.611 261.924-108.666 141.839-141.987 145.695-368.020 8.751-514.605-2.918-3.114-5.933-6.278-8.998-9.344-6.378-6.378-16.71-6.378-23.138 0-6.377 6.377-6.377 16.71 0 23.138 2.818 2.818 5.537 5.635 8.257 8.503 124.882 133.632 121.323 339.742-8.009 469.221-63.776 63.825-148.563 99.025-238.788 99.075-0.050 0-0.098 0-0.148 0-90.176 0-174.963-35.102-238.738-98.827-63.825-63.775-99.025-148.563-99.075-238.788-0.049-90.225 35.051-175.061 98.827-238.887 7.564-7.564 15.623-14.931 23.977-21.851 60.265-49.834 136.499-77.224 215.008-77.224 0.989 0 2.027 0.050 3.016 0 8.948 0 16.265-7.218 16.364-16.216 0.099-9.048-7.168-16.414-16.216-16.463-1.088-0.050-2.175-0.050-3.214-0.050zM517.191 326.267c-69.115 0-125.327 56.212-125.327 125.327s56.212 125.327 125.327 125.327 125.327-56.212 125.327-125.327-56.26-125.327-125.327-125.327zM517.191 544.192c-51.069 0-92.598-41.528-92.598-92.598s41.577-92.598 92.598-92.598 92.598 41.528 92.598 92.598-41.528 92.598-92.598 92.598zM276.080 114.523c-0.84 0-1.681 0.050-2.571 0.198-8.899 1.385-14.98 9.788-13.596 18.687 20.369 129.331 130.27 223.215 261.382 223.215 124.436 0 233.399-89.632 259.107-213.081 1.829-8.85-3.857-17.5-12.656-19.33-8.85-1.878-17.501 3.806-19.33 12.656-22.544 108.369-118.010 187.026-227.071 187.026-114.944 0-211.299-82.266-229.099-195.578-1.335-8.059-8.257-13.793-16.166-13.793z"  horiz-adv-x="1024" />

    
    <glyph glyph-name="toilet" unicode="&#58930;" d="M328.906 635.236c34.463 0 62.416 27.862 62.416 62.224 0 34.378-27.953 62.24-62.416 62.24-34.463 0-62.417-27.862-62.417-62.24-0.001-34.362 27.952-62.224 62.417-62.224zM396.019 622.976h-134.165c-60.186 0-79.778-15.453-79.778-80.777v-191.060c0-37.105 50.25-37.105 50.25 0l4.3 174.738h12.895v-478.361c0-49.662 68.316-48.219 68.316 0l4.339 277.662h13.539l4.285-277.662c0-48.219 68.315-49.662 68.315 0v478.361h12.88l4.331-174.738c0-37.105 50.172-37.105 50.172 0v191.060c-0.015 65.347-19.56 80.777-79.684 80.777zM701.898 636.344c34.13 0 61.781 27.978 61.781 62.495 0 34.533-27.652 62.511-61.781 62.511s-61.798-27.977-61.798-62.511c0.001-34.517 27.667-62.495 61.798-62.495zM869.428 391.681l-52.994 176.534c-10.283 31.239-41.090 55.815-86.061 55.815h-56.978c-45.004 0-75.808-24.575-86.094-55.815l-53.008-176.534c-10.973-37.943 32.387-51.428 43.733-15.981l55.961 161.399h6.448c0 0-73.507-289.024-76.599-299.858-1.566-5.415 0.635-9.314 6.315-9.314 3.504 0 63.604 0 63.604 0l0.047-189.81c0-38.611 57.13-38.611 57.13 0v191.273h21.903l-0.031-191.275c0-38.611 57.179-38.611 57.179 0l0.031 189.81c0 0 60.109 0 63.571 0 5.68 0 7.913 3.899 6.348 9.314-3.098 10.835-76.646 299.858-76.646 299.858h6.494l55.931-161.399c11.36-35.445 54.72-21.984 43.716 15.982z"  horiz-adv-x="1024" />

    
    <glyph glyph-name="factory" unicode="&#58931;" d="M842.518 59.528h-36.152v180.763c0 6.656-5.395 12.053-12.051 12.053h-168.711c-6.656 0-12.051-5.398-12.051-12.053v-180.763h-24.101v482.032c0 6.656-5.395 12.053-12.051 12.053h-180.761v72.304h337.421v-144.61h-12.051c-6.656 0-12.051-5.394-12.051-12.050v-48.206c0-6.656 5.395-12.053 12.051-12.053h12.051v-24.096c13.312 0 24.101-10.789 24.101-24.101s-10.791-24.101-24.101-24.101c-13.312 0-24.101 10.791-24.101 24.101h-24.101c0-26.621 21.581-48.202 48.202-48.202s48.202 21.581 48.202 48.202c0 17.838-9.697 33.401-24.101 41.738v6.461h12.051c6.656 0 12.051 5.398 12.051 12.053v48.206c0 6.656-5.395 12.050-12.051 12.050h-12.051v144.609h84.355l24.101 48.199-24.101 24.105h-445.878v48.201c0 6.656-5.395 12.050-12.051 12.050h-96.406c-6.656 0-12.051-5.394-12.051-12.050v-48.201h-24.101v12.050c0 6.656-5.395 12.050-12.051 12.050h-72.304c-6.656 0-12.051-5.394-12.051-12.050v-120.505c0-6.656 5.395-12.050 12.051-12.050h72.304c6.656 0 12.051 5.394 12.051 12.050v36.152h24.101v-72.304h-36.152c-6.656 0-12.051-5.398-12.051-12.053v-482.032h-60.254c-6.656 0-12.051-5.394-12.051-12.050v-24.104c0-6.656 5.395-12.053 12.051-12.053h674.841c6.656 0 12.051 5.398 12.051 12.053v24.104c0 6.657-5.395 12.051-12.051 12.051zM541.251 324.647c0-6.656-5.395-12.050-12.051-12.050h-48.202c-6.656 0-12.051 5.394-12.051 12.050v48.202c0 6.656 5.395 12.053 12.051 12.053h48.202c6.656 0 12.051-5.398 12.051-12.053v-48.202zM541.251 445.15c0-6.656-5.395-12.050-12.051-12.050h-48.202c-6.656 0-12.051 5.394-12.051 12.050v48.205c0 6.656 5.395 12.050 12.051 12.050h48.202c6.656 0 12.051-5.394 12.051-12.050v-48.205z"  horiz-adv-x="1024" />

    
    <glyph glyph-name="recharged" unicode="&#58932;" d="M850.937 593.465c0 0 0.414 10.21-11.417 20.882-23.252 20.958-62.687 55.849-74.733 67.946-6.768 6.786-22.341 10.777-32.709-0.142-9.894-10.416-5.575-24.098 1.716-31.091 10.412-9.947 33.822-29.567 47.178-44.287-11.108-13.762-29.497-28.187-40.956-40.912-1.47-1.593-1.404-3.411-1.388-4.304 0.049-7.28 0.331-12.288 0.288-15.354-0.053-2.67 3.074-3.643 4.459-3.643h58.035c3.894 0 4.899-3.93 4.899-3.93v-375.147c0-20.947-11.345-27.542-22.986-27.542-11.643 0-24.037 6.644-24.037 27.542v306.718c0 27.805-3.054 40.388-34.306 42.067-7.652 0.409-38.418 0.112-55.102 0v195.567c0 25.785-20.828 46.677-46.505 46.677h-359.037c-25.706 0-46.515-20.893-46.515-46.677v-626.957h-26.571c-10.585 0-19.14-8.597-19.14-19.203v-28.325c0-10.619 8.556-20.139 19.14-20.139h504.436c10.569 0 19.14 9.521 19.14 20.139v28.325c0 10.606-8.572 19.203-19.14 19.203h-25.804v386.338c9.387-0.032 22.55 0 32.055 0 11.431 0 12.404-11.392 12.404-11.392v-295.277c0-75.365 62.095-76.087 68.98-76.087 9.265 0 67.615 0 67.615 75.143v433.862zM586.481 474.926c0-17.186-13.887-31.119-31.017-31.119h-224.707c-17.12 0-30.997 13.933-30.997 31.119v164.805c0 17.186 13.877 31.119 30.997 31.119h224.707c17.132 0 31.017-13.932 31.017-31.119v-164.805zM435.385 226.034h-68.56l113.018 157.828-31.267-109.587h62.947l-108.237-159.599 32.098 111.357z"  horiz-adv-x="1024" />

    
    <glyph glyph-name="skin" unicode="&#58888;" d="M337.207 705.539c21.36 0 42.721 0 64.081 0 4.725-2.742 11.626-3.781 15.925-7.041 5.86-4.395 10.066-9.972 14.649-15.69 6.19-7.703 17.864-15.17 27.694-19.187 11.484-4.631 23.676-7.277 37.759-9.829 4.442-0.283 8.884-0.473 13.328-0.757 5.955-0.897 14.46 0.52 19.377 1.512 26.512 5.198 39.791 9.452 57.23 22.967 6.805 5.341 10.444 14.131 17.533 19.234 3.969 2.127 7.987 4.349 12.003 6.521 3.449 1.323 5.908 0.567 8.742 2.269 6.332 0 12.618 0 18.856 0 18.194 0 45.226 2.41 57.23-3.734 8.46-4.442 14.934-11.435 21.549-17.722 9.214-8.742 18.43-17.486 27.598-26.228 29.725-28.307 59.497-56.567 89.175-84.875 9.356-9.782 20.18-18.242 29.488-28.071 7.655-7.893 15.785-13.799 19.99-25.235 0.142-1.842 0.19-3.686 0.237-5.528 2.127-12.476-3.686-21.549-9.546-28.779-24.905-23.581-49.81-47.21-74.762-70.743-9.073-9.876-20.415-23.628-36.436-26.512-21.833-3.922-34.215 9.215-44.422 18.904-3.308 3.214-6.096 7.325-10.397 9.641-0.19-0.19-0.52-0.378-0.802-0.52 0-84.26 0-168.52 0-252.827-0.048-23.723-0.142-47.54-0.283-71.263-1.749-8.222-7.23-16.729-13.232-21.219-14.98-11.059-41.397-8.601-67.909-8.601-50.376 0-100.847 0-151.319 0-34.119 0-68.239 0-102.407 0-18.477 0-37.901-1.369-48.959 5.624-6.19 3.781-12.996 10.869-15.737 17.911-3.119 8.128-2.362 19.47-2.362 30.292 0 15.973 0 31.852 0 47.73 0 84.166 0 168.425 0 252.637-0.378 0-0.71 0-1.087 0-11.011-9.452-19.47-21.171-34.261-27.078-12.57-5.056-27.267 0.237-35.112 5.528-5.482 3.781-9.641 8.648-14.366 13.138-11.247 10.539-22.495 21.076-33.742 31.568-5.341 5.198-10.68 10.444-15.973 15.736-6.569 5.388-12.287 11.531-18.336 17.39-7.325 6.995-15.311 12.428-19.706 22.259-1.889 4.159-5.624 11.673-4.254 18.666 3.214 16.587 13.752 25.33 24.479 34.639 6.38 5.482 12.004 11.862 18.336 17.39 35.207 33.504 70.414 67.011 105.621 100.517 6.38 6.049 12.76 12.098 19.139 18.194 9.262 8.789 17.533 19.659 35.396 20.226 0 0.33 0 0.614 0 0.945z"  horiz-adv-x="1025" />

    
    <glyph glyph-name="icon2" unicode="&#58926;" d="M141.211 95.255l53.758-60.457 330.825 310.432 301.028-309.281 55.982 56.307-354.817 365.316-386.777-362.317zM525.796 620.859l301.028-309.281 55.982 56.307-354.817 365.316-386.777-362.318 53.758-60.457 330.826 310.433z"  horiz-adv-x="1025" />

    
    <glyph glyph-name="icon3" unicode="&#58927;" d="M527.988 310.429l354.817 365.316-55.982 56.307-301.028-309.281-330.826 310.432-53.758-60.457 386.777-362.317zM194.969 457.572l-53.758-60.457 386.778-362.318 354.817 365.316-55.982 56.307-301.028-309.28-330.826 310.433z"  horiz-adv-x="1025" />

    
    <glyph glyph-name="arrow-up" unicode="&#58880;" d="M554.689 585.599c107.21-110.891 214.414-221.779 321.514-332.667 44.188-45.66-27.563-113.728-71.856-67.857-95.423 98.685-190.74 197.371-286.163 296-98.684-99.157-197.474-198.314-296.158-297.525-44.924-45.133-116.675 22.934-71.804 67.912 110.837 111.416 221.726 222.777 332.613 334.139 18.41 18.411 53.656 18.884 71.855 0z"  horiz-adv-x="1024" />

    
    <glyph glyph-name="guide" unicode="&#58911;" d="M512 700.752c-174.658 0-316.752-142.096-316.752-316.752 0-174.658 142.096-316.752 316.752-316.752 174.658 0 316.752 142.096 316.752 316.752 0 174.658-142.096 316.752-316.752 316.752M512 5.941c-208.465 0-378.059 169.594-378.059 378.059s169.594 378.059 378.059 378.059c208.465 0 378.059-169.594 378.059-378.059 0-208.465-169.594-378.059-378.059-378.059zM470.611 188.871h74.327v76.752h-74.327v-76.752zM595.426 539.579h-0.005c-22.060 19.499-49.833 29.383-82.551 29.383-16.005 0-31.468-2.537-45.951-7.544-14.762-5.105-28.321-13.123-40.303-23.827-12.208-10.913-21.246-23.565-26.865-37.616-5.508-13.771-8.525-32.686-9.216-57.825l-0.392-14.005h70.343v13.624c0 43.613 15.706 63.062 50.925 63.062 15.255 0 26.276-3.887 33.679-11.878 7.795-8.434 11.423-17.37 11.423-28.126 0-14.282-2.466-21.295-4.54-24.666-2.633-4.292-9.547-13.3-27.538-31.859-15.589-16.095-26.632-28.607-32.823-37.196-6.761-9.395-11.874-20.436-15.194-32.816-3.216-11.944-4.84-27.751-4.84-46.974v-13.624h70.248l-0.294 13.909c-0.296 14.040 0.738 25.125 3.079 32.959 2.217 7.459 5.476 13.893 9.686 19.122 4.953 6.15 15.501 16.984 31.341 32.206 17.7 17.002 29.114 31.158 34.891 43.276 5.879 12.313 8.854 26.124 8.854 41.051 0 32.727-11.427 59.43-33.963 79.368z"  horiz-adv-x="1024" />

    
    <glyph glyph-name="signout" unicode="&#58881;" d="M441.117 117.719q0-1.958 0.489-9.788t0.245-12.972-1.469-11.503-4.894-9.546-10.035-3.181h-156.635q-58.25 0-99.61 41.362t-41.362 99.612v344.6q0 58.25 41.362 99.612t99.612 41.362h156.635q6.363 0 11.013-4.652t4.65-11.014q0-1.958 0.489-9.791t0.245-12.972-1.469-11.504-4.894-9.546-10.035-3.181h-156.635q-32.305 0-55.311-23.004t-23.005-55.311v-344.6q0-32.305 23.005-55.312t55.311-23.004h152.72t5.629-0.489 5.629-1.469 3.916-2.693 3.427-4.407 0.978-6.608zM895.36 384q0-12.727-9.3-22.027l-266.282-266.281q-9.299-9.299-22.027-9.299t-22.027 9.299-9.299 22.027v140.973h-219.291q-12.727 0-22.027 9.299t-9.3 22.027v187.963q0 12.726 9.3 22.026t22.027 9.301h219.291v140.971q0 12.727 9.3 22.027t22.027 9.299 22.027-9.299l266.281-266.281q9.299-9.3 9.299-22.027z"  horiz-adv-x="1024" />

    
    <glyph glyph-name="flog" unicode="&#59100;" d="M705.067 692.701c-55.974 0-106.204 13.447-140.51 32.036-34.305 18.631-84.534 32.016-140.51 32.016-55.955 0-106.163-22.982-140.51-41.632v-352.293c34.326 18.631 84.534 41.633 140.51 41.633 55.974 0 106.204-13.427 140.51-32.016 34.305-18.631 84.534-32.036 140.51-32.036s106.185 24.626 140.51 43.257v352.293c-34.326-18.652-84.534-43.257-140.51-43.257zM231.498 756.753c-17.257 0-31.225-13.988-31.225-31.225v-686.934c0-17.236 13.968-31.225 31.225-31.225s31.225 13.988 31.225 31.225v686.934c0 17.236-13.969 31.225-31.225 31.225z"  horiz-adv-x="1024" />

    
    <glyph glyph-name="arrow-left" unicode="&#58893;" d="M300.304 405.103c-0.486-0.973-1.338-1.824-1.703-2.797-8.514-17.758-5.717-39.651 9.365-53.882l343.725-325.116c18.731-17.758 48.287-16.907 66.045 1.824s16.907 48.287-1.824 66.045l-308.453 291.79 307.236 296.047c18.609 17.881 19.096 47.436 1.216 66.045-9.122 9.487-21.407 14.351-33.57 14.352-11.676 0-23.353-4.378-32.353-13.137l-340.563-328.278c-0.608-0.608-0.851-1.581-1.581-2.189-0.487-0.487-0.973-0.851-1.581-1.338-2.797-2.797-4.135-6.203-5.959-9.365v0zM300.304 405.103z"  horiz-adv-x="1024" />

    
    <glyph glyph-name="shutdown" unicode="&#58909;" d="M511.999 299.237c-34.453 0-62.36 27.906-62.36 62.358v335.747c0 34.453 27.907 62.358 62.36 62.358s62.358-27.906 62.358-62.358v-335.747c0.001-34.453-27.906-62.358-62.358-62.358zM511.999 8.343c-201.174 0-364.825 163.653-364.825 364.828 0 111.123 50.028 214.788 137.269 284.388 26.904 21.533 66.166 17.075 87.633-9.853 21.491-26.928 17.075-66.165-9.853-87.634-57.399-45.806-90.331-113.93-90.331-186.903 0-132.398 107.709-240.107 240.106-240.107 132.397 0 240.105 107.71 240.105 240.107 0 72.972-32.932 141.118-90.353 186.946-26.905 21.492-31.322 60.729-9.832 87.657 21.469 26.928 60.749 31.365 87.656 9.832 87.22-69.644 137.246-173.311 137.246-284.432 0.003-201.176-163.648-364.828-364.822-364.828z"  horiz-adv-x="1024" />

    
    <glyph glyph-name="triangle-up" unicode="&#58892;" d="M126.528 255.504l385.492 385.406 385.451-385.406h-770.944z"  horiz-adv-x="1024" />

    
    <glyph glyph-name="person" unicode="&#58920;" d="M512 384c-208.764 0-378.059-169.296-378.059-378.059h756.118c0 208.764-169.256 378.059-378.059 378.059zM322.971 573.029c0-104.399 84.631-189.029 189.029-189.029s189.029 84.631 189.029 189.029c0 104.399-84.631 189.029-189.029 189.029-104.399 0-189.029-84.631-189.029-189.029z"  horiz-adv-x="1024" />

    
    <glyph glyph-name="ring" unicode="&#58882;" d="M264.807 204.402c-14.831 0-24.719 9.888-24.719 24.719v197.754c0 118.653 74.158 222.473 187.867 257.080 14.831 4.943 29.663 0 34.607-14.831s-4.943-24.719-19.776-29.663c-88.989-29.663-153.26-113.708-153.26-212.586v-197.754c0-14.831-9.888-24.719-24.719-24.719zM808.631 105.524h-593.262c-14.831 0-24.719 9.888-24.719 24.719s9.888 24.719 24.719 24.719h593.262c14.831 0 24.719-9.888 24.719-24.719s-14.831-24.719-24.719-24.719zM759.193 105.524c-14.831 0-24.719 9.888-24.719 24.719v296.631c0 103.821-74.158 192.81-173.034 217.529-44.495 9.888-74.158 49.438-74.158 93.933 0 14.831 9.888 24.719 24.719 24.719s24.719-9.888 24.719-24.719c0-24.719 14.831-44.495 34.607-49.438 123.596-29.663 212.586-138.428 212.586-266.968v-296.631c0-9.888-9.888-19.776-24.719-19.776zM462.562 80.805v0zM512 6.647c-54.383 0-98.877 44.495-98.877 98.877 0 14.831 9.888 24.719 24.719 24.719s24.719-9.888 24.719-24.719c0-29.663 19.776-49.438 49.438-49.438s49.438 19.776 49.438 49.438c0 14.831 9.888 24.719 24.719 24.719s24.719-9.888 24.719-24.719c0-54.382-44.495-98.877-98.877-98.877z"  horiz-adv-x="1024" />

    
    <glyph glyph-name="transfer" unicode="&#58933;" d="M856.303 575.875l-330.897 174.041c-7.235 2.821-13.011 7.808-30.288-3.005l-325.84-173.557c-9.004-5.096-12.091-16.385-6.891-25.216l6.274-10.657c5.199-8.828 16.712-11.857 25.716-6.76l318.187 168.511 318.628-168.458c9.006-5.397 20.525-2.197 25.726 7.145l6.28 11.277c5.199 9.34 2.114 21.285-6.894 26.679zM827.42 502.858h-25.204c-6.961 0-12.603-5.641-12.603-12.6v-428.471h-554.484v428.47c0 6.959-5.641 12.6-12.6 12.6h-25.204c-6.961 0-12.603-5.641-12.603-12.6v-466.274c0-6.961 5.643-12.603 12.603-12.603h630.096c6.961 0 12.602 5.643 12.602 12.603v466.274c0 6.96-5.641 12.601-12.602 12.601zM355.854 365.227c10.677 0 19.796 6.643 23.468 16.016 6.886 12.703 15.637 24.49 26.14 34.993 28.562 28.562 66.538 44.293 106.931 44.293s78.368-15.731 106.931-44.292c12.717-12.718 22.882-27.303 30.256-43.135h54.134c-26.694 80.088-102.261 137.835-191.321 137.835-77.896 0-145.468-44.177-179.046-108.838l0.129-0.072c-1.803-3.473-2.828-7.413-2.828-11.595 0-13.92 11.284-25.204 25.204-25.204zM515.741 121.065c77.896 0 145.468 44.177 179.046 108.838l-0.129 0.072c1.803 3.472 2.828 7.414 2.828 11.595 0 13.919-11.285 25.204-25.204 25.204-10.677 0-19.796-6.643-23.469-16.017-6.886-12.703-15.637-24.49-26.14-34.993-28.562-28.562-66.538-44.293-106.931-44.293s-78.368 15.729-106.931 44.292c-12.717 12.717-22.882 27.303-30.256 43.135h-54.134c26.695-80.088 102.261-137.835 191.321-137.835z"  horiz-adv-x="1024" />

    
    <glyph glyph-name="arrow-down" unicode="&#58887;" d="M470.132 186.278c-105.148 108.758-210.291 217.514-315.331 326.27-43.338 44.782 27.033 111.541 70.474 66.552 93.588-96.787 187.072-193.575 280.66-290.308 96.786 97.25 193.676 194.5 290.463 291.803 44.060 44.265 114.431-22.493 70.423-66.606-108.706-109.273-217.462-218.493-326.217-327.713-18.056-18.057-52.624-18.521-70.473 0z"  horiz-adv-x="1024" />

    
    <glyph glyph-name="dot" unicode="&#58896;" d="M328.095 384.090c0-101.665 82.415-184.082 184.082-184.082s184.082 82.415 184.082 184.082c0 101.665-82.415 184.082-184.082 184.082-101.665 0-184.082-82.415-184.082-184.082z"  horiz-adv-x="1024" />

    
    <glyph glyph-name="teach" unicode="&#58902;" d="M149.734 737.929h724.532c8.723 0 15.793-7.002 15.793-15.793v-680.535c0-8.723-7.002-15.793-15.793-15.793h-724.532c-8.723 0-15.793 7.002-15.793 15.793v680.535c0 8.723 7.002 15.793 15.793 15.793zM181.519 55.967c0 8.653-6.646 15.712-14.749 15.712h691.702c-8.123 0-14.749-7.078-14.749-15.712v655.436c0-8.653 6.645-15.712 14.749-15.712h-691.702c8.123 0 14.749 7.078 14.749 15.712v-655.436zM423.044 206.091v355.82l-35.368-17.949 243.213-177.909v35.897l-243.213-177.909 35.368-17.949zM378.566 206.091c0-18.203 20.677-28.697 35.368-17.949l243.213 177.909c12.145 8.884 12.145 27.013 0 35.897l-243.213 177.909c-14.692 10.747-35.368 0.254-35.368-17.949v-355.82z"  horiz-adv-x="1024" />

    
    <glyph glyph-name="arrow-right" unicode="&#58895;" d="M719.591 415.127l-354.010 342.947c-16.596 16.596-44.251 16.596-63.611 0-16.596-16.596-16.596-44.251 0-60.845l323.588-312.525-320.822-315.29c-16.596-16.596-16.596-44.251 0-60.845 16.596-16.596 44.251-16.596 63.611 0l354.010 342.949c16.596 19.36 16.596 47.017-2.766 63.611z"  horiz-adv-x="1024" />

    
    <glyph glyph-name="play" unicode="&#58940;" d="M167.061 758.781l689.878-398.376-689.878-398.28z"  horiz-adv-x="1024" />

    
    <glyph glyph-name="car" unicode="&#58921;" d="M555.155 107.16c0-50.701-42.133-91.784-94.125-91.784-51.989 0-94.119 41.084-94.119 91.784 0 50.701 42.13 91.784 94.119 91.784 51.99 0 94.125-41.084 94.125-91.784v0zM1124.969 107.16c0-50.701-42.128-91.784-94.119-91.784-51.99 0-94.123 41.084-94.123 91.784 0 50.701 42.134 91.784 94.123 91.784 51.99 0 94.118-41.084 94.118-91.784v0zM1223.54 445.306l-90.943 118.298c-18.598 21.861-31.159 39.689-61.050 39.689h-183.152c-22.416 0-40.705-17.829-40.705-39.689v-396.91c0-21.783 18.166-39.498 40.461-39.649 10.017 68.372 69.875 121.28 142.695 121.28 72.856 0 132.719-52.948 142.69-121.321h40.468c22.417 0 40.698 17.829 40.698 39.689v198.452c0 37.601-31.164 80.159-31.164 80.159v0zM766.29 762.059h-529.115c-22.416 0-40.698-17.827-40.698-39.688v-555.676c0-21.861 18.283-39.689 40.698-39.689h81.167c9.978 68.376 69.834 121.321 142.688 121.321 72.862 0 132.719-52.943 142.697-121.321h162.562c22.424 0 40.705 17.829 40.705 39.689v555.676c0 21.861-18.287 39.688-40.705 39.688v0z"  horiz-adv-x="1434" />

    
    <glyph glyph-name="parking" unicode="&#58934;" d="M630.606 550.185c0 113.033-93.061 204.655-207.866 204.655-5.227 0-10.357-0.393-15.491-0.768h-183.622v-0.388h-93.947v-750.233h105.461v342.731h171.37c8.046-0.923 7.948-0.658 16.235-0.658 114.805 0.005 207.863 91.619 207.863 204.659zM406.506 451.647h-171.366v197.741h171.37c50.093-2.35 96.014-48.157 96.014-98.048s-45.925-97.322-96.019-99.694zM887.211 188.161c-3.333 6.666-12.509 14.265-12.509 14.265l-37.821 101.25c-7.852 19.191-30.966 29.313-41.047 29.313h-198.636c-10.091 0-33.189-10.119-41.044-29.313l-37.83-101.25c0 0-9.155-7.598-12.518-14.265-3.358-6.64-7.017-12.585-7.017-57.468 0-43.795 8.783-59.346 19.28-64.75l8.303-4.69v-40.656c0-13.177 3.127-17.093 15.652-17.093h28.089c12.509 0 20.943-0.050 20.943 13.124v39.543h210.921v-39.543c0-13.177 8.421-13.124 20.929-13.124h28.097c12.517 0 15.643 3.919 15.643 17.093v40.656l8.303 4.69c10.505 5.401 19.28 20.947 19.297 64.75 0.005 44.883-3.658 50.828-7.033 57.468zM568.7 214.313c1.569 5.733 12.079 50.625 16.732 66.185 1.915 5.371 14.356 21.377 28.868 20.466h164.434c14.505 0.916 26.958-15.090 28.839-20.466 4.674-15.561 15.167-60.45 16.757-66.185 1.873-6.8-4.308-6.206-4.308-6.206h-247.013c0 0.005-6.197-0.595-4.311 6.206zM572.767 104.402c-16.672 0-30.228 13.589-30.228 30.211 0 16.657 13.555 30.211 30.228 30.211 16.642 0 30.194-13.555 30.194-30.211 0.007-16.627-13.546-30.211-30.194-30.211zM821.201 104.402c-16.657 0-30.228 13.589-30.228 30.211 0 16.657 13.572 30.211 30.228 30.211 16.639 0 30.198-13.555 30.198-30.211 0-16.627-13.559-30.211-30.198-30.211z"  horiz-adv-x="1024" />

    
    <glyph glyph-name="camera" unicode="&#58935;" d="M239.911 623.466l-93.575-238.548 416.512-163.382 154.155 214.785-477.094 187.144zM769.3 352.45l-47.526-121.166 78.73-83.312 83.172 212.041-114.377-7.563zM712.025 390.213l-97.277-136.606 83.299-32.679 59.417 151.46-45.441 17.826zM205.261 297.791l54.936-21.726-21.577-47.323h-100.016v-42.708h128.121v1.395l33.236 72.912 60.374-23.873 18.699 47.281-155.082 61.318-18.689-47.279zM205.261 297.791z"  horiz-adv-x="1024" />

    
    <glyph glyph-name="gongchang" unicode="&#58936;" d="M292.184 427.623c-6.425 0-12.763 2.955-16.861 8.529-6.832 9.303-4.833 22.385 4.47 29.221l156.772 115.18c6.353 4.667 14.888 5.358 21.915 1.804 7.033-3.558 11.56-10.771 11.56-18.651v-73.885l123.396 90.732c6.358 4.667 15.55 5.358 22.573 1.804 7.032-3.558 12.218-10.771 12.218-18.651v-73.885l122.688 90.732c6.353 4.667 14.18 5.358 21.207 1.804 7.033-3.558 10.852-10.771 10.852-18.651v-115.18c0-11.543-9.52-20.903-21.063-20.903s-21.063 9.36-21.063 20.903v73.885l-123.128-90.732c-6.348-4.672-14.38-5.363-21.418-1.804-7.033 3.558-11.063 10.771-11.063 18.651v73.885l-123.71-90.732c-6.348-4.672-14.954-5.363-21.986-1.804-7.032 3.558-11.631 10.771-11.631 18.651v73.885l-123.433-90.732c-3.725-2.738-8.002-4.060-12.297-4.060zM710.228 30.467h-385.966c-11.543 0-20.903 9.36-20.903 20.903v148.064c0 11.543 9.36 20.903 20.903 20.903h385.966c11.543 0 20.903-9.36 20.903-20.903v-148.064c0-11.544-9.36-20.903-20.903-20.903zM345.165 72.272h344.159v106.257h-344.159v-106.257zM867 29.56h-710.703c-11.543 0-20.685 10.266-20.685 21.809v668.896c0 11.543 9.141 18.556 20.685 18.556h135.869c11.543 0 20.546-7.012 20.546-18.556v-271.739c0-11.543-9.090-20.903-20.633-20.903s-20.633 9.36-20.633 20.903v249.028h-92.849v-626.731h667.138v355.921h-83.249c-11.543 0-20.903 8.661-20.903 20.204s9.36 20.204 20.903 20.204h104.515c11.543 0 20.858-7.082 20.858-18.625v-397.158c-0.001-11.544-9.317-21.809-20.86-21.809zM497.139 335.413h44.37v-44.37h-44.37v44.37zM688.042 335.413h44.37v-44.37h-44.37v44.37zM306.237 335.413h44.369v-44.37h-44.369v44.37z"  horiz-adv-x="1024" />

    
    <glyph glyph-name="menu" unicode="&#58883;" d="M865.013 164.327h-472.888c-17.904 0-32.424-14.519-32.424-32.459 0-17.905 14.519-32.425 32.424-32.425h472.888c17.944 0 32.46 14.519 32.46 32.425 0 17.942-14.516 32.459-32.46 32.459zM865.013 416.118h-472.888c-17.904 0-32.424-14.52-32.424-32.459s14.519-32.426 32.424-32.426h472.888c17.944 0 32.46 14.481 32.46 32.426 0 17.941-14.516 32.459-32.46 32.459zM392.125 602.987h472.888c17.944 0 32.46 14.518 32.46 32.459s-14.517 32.46-32.46 32.46h-472.888c-17.904 0-32.424-14.52-32.424-32.46-0.001-17.942 14.518-32.459 32.424-32.459zM240.012 708.12h-80.421c-17.942 0-32.459-14.52-32.459-32.426v-80.455c0-17.905 14.517-32.5 32.459-32.5h80.421c17.943 0 32.46 14.595 32.46 32.5v80.455c0 17.904-14.519 32.426-32.46 32.426zM240.012 456.366h-80.421c-17.942 0-32.459-14.557-32.459-32.498v-80.421c0-17.941 14.517-32.459 32.459-32.459h80.421c17.943 0 32.46 14.52 32.46 32.459v80.421c0 17.941-14.519 32.498-32.46 32.498zM240.012 204.577h-80.421c-17.942 0-32.459-14.52-32.459-32.459v-80.459c0-17.904 14.517-32.424 32.459-32.424h80.421c17.943 0 32.46 14.519 32.46 32.424v80.459c0 17.94-14.519 32.459-32.46 32.459z"  horiz-adv-x="1024" />

    
    <glyph glyph-name="toggle-change" unicode="&#58910;" d="M783.303 329.866c-18.461 18.664-48.375 18.664-66.842 0-18.47-18.663-18.47-48.899 0-67.558l13.45-12.945h-101.588l-43.207 57.846-66.601-67.008 51.746-69.286c9.026-10.537 22.239-16.616 36.15-16.616h123.949l-14.293-14.445c-18.459-18.664-18.459-48.892 0-67.555 18.465-18.674 48.375-18.674 66.843 0l95.673 96.672c8.863 8.96 13.843 21.091 13.843 33.793 0 12.686-4.975 24.816-13.843 33.778l-95.277 93.322zM177.669 534.554h120.999l41.473-55.529 66.605 67.009-50.018 66.972c-9.027 10.534-22.239 16.615-36.152 16.615h-142.907c-26.333 0-47.635-21.262-47.635-47.535 0-26.277 21.303-47.533 47.635-47.533v0zM729.91 534.554l-13.45-12.944c-18.47-18.657-18.47-48.894 0-67.556 18.465-18.664 48.379-18.664 66.842 0l95.277 93.313c8.863 8.966 13.843 21.099 13.843 33.783 0 12.697-4.975 24.831-13.843 33.795l-95.672 96.669c-18.466 18.669-48.376 18.669-66.843 0-18.459-18.66-18.459-48.898 0-67.559l14.29-14.437h-123.944c-13.911 0-27.126-6.083-36.15-16.616l-271.59-363.643h-121.002c-26.333 0-47.635-21.262-47.635-47.534 0-26.267 21.303-47.529 47.635-47.529h142.913c13.906 0 27.119 6.079 36.15 16.616l271.59 363.637 101.587 0.001zM729.91 534.554z"  horiz-adv-x="1024" />

    
    <glyph glyph-name="paobu" unicode="&#58939;" d="M641.504 601.109c-45.708 0-83.796 38.089-83.796 83.796s38.089 83.796 83.796 83.796 83.796-38.089 83.796-83.796-38.089-83.796-83.796-83.796zM641.504 728.709c-24.759 0-45.708-20.949-45.708-45.708s20.949-45.708 45.708-45.708 45.708 20.949 45.708 45.708-20.949 45.708-45.708 45.708zM512 86.903c-3.809 0-7.618 1.905-11.427 3.809-9.522 5.713-11.427 17.14-5.713 26.662l85.701 129.504c13.332 20.949 5.713 36.185 3.809 39.994l-60.943 39.994c-45.708 19.046-53.325 76.179-53.325 79.988s0 7.618 1.905 11.427l85.701 171.402c1.905 3.809 5.713 7.618 11.427 9.522 5.713 1.905 9.522 0 15.235-1.905l133.312-76.179 97.129 156.167c5.713 9.522 17.14 11.427 26.662 5.713s11.427-17.14 5.713-26.662l-106.65-171.402c-5.713-9.522-17.14-11.427-24.759-5.713l-133.312 76.179-72.37-152.357c1.905-11.427 9.522-36.185 28.567-43.802 1.905 0 1.905-1.905 3.809-1.905l64.751-43.802c1.905 0 1.905-1.905 1.905-1.905 1.905-1.905 34.281-34.281 3.809-87.606l-85.701-129.504c-3.809-5.713-9.522-7.618-15.235-7.618zM190.146 1.203c-7.618 0-17.14 5.713-19.046 15.235s3.809 20.949 13.332 22.853c87.606 22.853 207.588 217.109 245.676 291.384 5.713 9.522 17.14 13.332 26.662 7.618 9.522-5.713 13.332-17.14 7.618-26.662-5.713-11.427-146.644-278.052-268.53-310.428-1.905 0-3.809 0-5.713 0zM319.649 494.459c-3.809 0-7.618 1.905-11.427 3.809-7.618 5.713-9.522 19.046-3.809 26.662l85.701 106.65c1.905 3.809 26.662 32.375 57.134 36.185 13.332 1.905 24.759-1.905 36.185-11.427l43.802-43.802c7.618-7.618 7.618-19.046 0-26.662s-19.046-7.618-26.662 0l-45.708 41.898c-1.905 1.905-3.809 1.905-5.713 1.905-11.427-1.905-24.759-15.235-30.472-20.949l-85.701-106.65c-1.905-5.713-7.618-7.618-13.332-7.618z"  horiz-adv-x="1024" />

    
    <glyph glyph-name="road" unicode="&#58937;" d="M535.090 693.31h-50.853l-4.67-100.834h60.15l-4.626 100.834zM542.029 542.073h-64.797l-9.34-201.619h83.385l-9.248 201.619zM465.556 290.049l-9.342-201.646h106.624l-9.251 201.646h-88.033zM254.206 620.525c-22.612-67.283-81.092-304.652-108.359-391.231-27.601-87.567-9.707-137.781 58.192-137.781h127.816l96.604 602.707c-54.64 0-96.638 0-96.638 0-42.033-3.195-54.974-6.407-77.612-73.697zM879.739 219.695c-16.186 48.057-80.821 330.354-100.216 391.231-19.402 60.873-58.192 83.298-113.147 83.298h-78.259l97.604-602.707h151.987c64.642 0 58.192 80.125 42.032 128.18z"  horiz-adv-x="1024" />

    
    <glyph glyph-name="pause" unicode="&#58942;" d="M382.399-9.755h-126.756c-27.998 0-50.674 22.676-50.674 50.671v684.374c0 27.996 22.676 50.664 50.674 50.664h126.756c27.998 0 50.669-22.668 50.669-50.664v-684.375c0-27.994-22.672-50.67-50.669-50.67v0zM762.587-9.755h-126.755c-27.998 0-50.674 22.676-50.674 50.671v684.374c0 27.996 22.676 50.664 50.674 50.664h126.756c27.998 0 50.669-22.668 50.669-50.664v-684.375c0-27.994-22.673-50.67-50.67-50.67v0z"  horiz-adv-x="1024" />

    
    <glyph glyph-name="folding" unicode="&#58897;" d="M323.651 195.955l-187.293 141.085v93.909l187.293 141.105zM887.642 102.271v-93.909h-751.278v93.909h751.278zM887.642 430.96v-93.909h-469.545v93.909h469.545zM887.642 759.639v-93.905h-751.278v93.905h751.278z"  horiz-adv-x="1024" />

    
    <glyph glyph-name="airport" unicode="&#58907;" d="M697.478 140.49l208.627 600.867-230.893-592.262zM730.071 127.897l176.034 613.462-197.452-605.19zM662.87 153.863l243.234 587.494-264.236-579.382zM769.271 112.749l23.015-8.893 113.815 637.5zM759.975 116.343l146.129 625.013-165.878-617.383zM468.612 228.921l437.491 512.437-465.939-501.442zM510.355 212.786l395.751 528.571-417.586-520.133zM628.3 167.22l277.805 574.137-301.884-564.831zM589.281 182.298l316.822 559.058-338.275-550.775zM551.367 196.945l354.736 544.412-377.505-535.615zM120.297 390.321l291.207-124.784 458.559 488.142zM440.586 16.895l163.635 136.97-163.635 63.934z"  horiz-adv-x="1024" />

    
    <glyph glyph-name="collection" unicode="&#58938;" d="M625.857 145.507l-42.839 0.263c0 0 11.256 59.169-50.87 66.78-0.458 0-12.787 0.817-23.912-4.334l1.6-2.577c6.044 2.455 12.559 3.781 19.192 3.781 13.425 0 26.743-5.49 36.194-14.919 9.5-9.403 14.977-22.72 14.977-36.025 0-13.364-5.478-26.623-14.977-36.038-2.601-2.623-5.537-4.936-8.656-6.887h87.161v1.688c-0.002 12.496-7.262 23.211-17.87 28.269v0zM419.652 524.803l-188.384-192.38v-183.762h-4.156c-17.399 0-31.569-14.063-31.569-31.425v-1.688h295.568c-3.108 1.953-6.044 4.263-8.645 6.887-6.912 6.828-11.75 15.724-13.836 25.188h-134.49v173.842h172.020l-0.167-28.729c10.726 1.084 20.732 2.625 32.424 1.832 0 0 16.412 26.079 51.015 53.82l-169.781 176.416zM419.642 560.755l195.296-199.425h95.312l-290.608 296.736-290.584-296.736h95.275l195.308 199.425zM525.343 201.372c-11.282 0-22.492-4.624-30.475-12.572-7.97-7.945-12.618-19.107-12.618-30.341 0-11.244 4.649-22.393 12.618-30.34 7.985-7.945 19.193-12.571 30.475-12.571s22.503 4.624 30.475 12.571c7.983 7.946 12.629 19.097 12.629 30.34 0 11.236-4.647 22.396-12.629 30.341-7.973 7.947-19.194 12.572-30.475 12.572v0zM806.534 201.372c-11.282 0-22.491-4.624-30.462-12.572-7.983-7.945-12.63-19.107-12.63-30.341 0-11.244 4.649-22.393 12.63-30.34 7.971-7.945 19.191-12.571 30.462-12.571 11.282 0 22.504 4.624 30.487 12.571 7.972 7.946 12.618 19.097 12.618 30.34 0 11.236-4.646 22.396-12.618 30.341-7.983 7.947-19.203 12.572-30.487 12.572v0zM860.787 271.11h-23.43c-12.63 29.377-44.756 64.622-44.756 64.622-6.948 8.116-11.75 7.8-11.75 7.8l-160.524-0.118c-32.812-16.868-72.052-72.592-72.052-72.592-30.62 1.953-66.029-4.311-66.029-4.311-37.049-6.705-42.683-25.455-42.683-25.455v-63.717c1.071-15.338 16.904-21.673 16.904-21.673 3.912 68.318 68.883 70.386 68.883 70.326 74.771-3.239 69.727-70.4 69.727-70.4h142.97c4.214 68.341 67.871 68.341 67.871 68.341 70.148-5.503 68.606-68.341 68.606-68.341 16.941 3.853 18.95 19.577 18.95 19.577v68.279c-7.501 20.455-32.692 27.656-32.692 27.656v0zM684.806 267.186l-99.153 0.636c20.421 48.355 47.198 55.916 47.198 55.916l53.207 0.038-1.252-56.589zM713.088 267.739l-0.131 53.967c9.295 0.458 53.832 0.265 53.832 0.265 9.692-0.193 16.278-4.936 23.793-16.724 8.104-12.727 15.968-37.651 15.968-37.651l-93.461 0.144zM525.343 201.372c-11.282 0-22.492-4.624-30.475-12.572-7.97-7.945-12.618-19.107-12.618-30.341 0-11.244 4.649-22.393 12.618-30.34 7.985-7.945 19.193-12.571 30.475-12.571s22.503 4.624 30.475 12.571c7.983 7.946 12.629 19.097 12.629 30.34 0 11.236-4.647 22.396-12.629 30.341-7.973 7.947-19.194 12.572-30.475 12.572v0zM806.534 201.372c-11.282 0-22.491-4.624-30.462-12.572-7.983-7.945-12.63-19.107-12.63-30.341 0-11.244 4.649-22.393 12.63-30.34 7.971-7.945 19.191-12.571 30.462-12.571 11.282 0 22.504 4.624 30.487 12.571 7.972 7.946 12.618 19.097 12.618 30.34 0 11.236-4.646 22.396-12.618 30.341-7.983 7.947-19.203 12.572-30.487 12.572v0z"  horiz-adv-x="1024" />

    
    <glyph glyph-name="circle" unicode="&#58903;" d="M513.318 670.941c38.804 0 76.402-7.58 111.747-22.529 34.188-14.459 64.9-35.177 91.303-61.575 26.402-26.402 47.116-57.121 61.575-91.309 14.948-35.345 22.529-72.943 22.529-111.747s-7.58-76.402-22.529-111.747c-14.459-34.181-35.177-64.907-61.575-91.303-26.402-26.402-57.121-47.116-91.309-61.575-35.345-14.948-72.943-22.529-111.747-22.529s-76.402 7.58-111.747 22.529c-34.181 14.459-64.907 35.177-91.309 61.575-26.402 26.402-47.116 57.121-61.575 91.303-14.948 35.345-22.529 72.943-22.529 111.747s7.58 76.402 22.529 111.747c14.459 34.188 35.177 64.9 61.575 91.309 26.402 26.402 57.121 47.116 91.309 61.575 35.345 14.948 72.943 22.529 111.747 22.529M513.318 761.606c-208.671 0-377.831-169.162-377.831-377.831s169.162-377.831 377.831-377.831 377.831 169.162 377.831 377.831-169.162 377.831-377.831 377.831v0zM352.255 383.747c0-89.055 72.193-161.251 161.247-161.251s161.247 72.193 161.247 161.247c0 0 0 0 0 0 0 89.055-72.193 161.247-161.247 161.247-89.055 0-161.247-72.193-161.247-161.247z"  horiz-adv-x="1026" />

    
    <glyph glyph-name="bucket" unicode="&#58912;" d="M888.41 162.164c-5.269 53.533-100.349 200.699-100.349 200.699s-92.273-142.448-100.35-200.699c-13.8-99.394 50.174-111.086 100.349-111.086 50.174 0 110.132 11.187 100.35 111.086zM766.895 393.597c1.2 14.204-3.621 28.82-14.51 39.711l-248.263 248.364c-19.62 19.616-51.38 19.616-70.946 0l-70.98-70.967-106.486 106.491c-9.786 9.786-25.641 9.786-35.475 0-9.786-9.834-9.786-25.688 0-35.475l106.486-106.483-177.433-177.405c-19.668-19.616-19.668-51.326 0-70.946l248.364-248.312c19.616-19.668 51.278-19.668 70.946 0l283.787 283.788c8.706 8.705 13.575 19.836 14.51 31.237zM220.28 397.832l141.921 141.921 88.681-88.684c9.785-9.781 25.694-9.781 35.475 0 9.781 9.786 9.781 25.688 0 35.472l-88.684 88.684 70.971 70.975 248.316-248.369h-496.682z"  horiz-adv-x="1024" />

    
    <glyph glyph-name="chahao" unicode="&#58923;" d="M780.032 64.576l-266.24 266.24-266.24-266.24-53.248 53.248L460.544 384l-266.24 266.24 53.248 53.248 266.176-266.24 266.24 266.24L833.28 650.24 567.04 384l266.24-266.176L780.032 64.576z"  horiz-adv-x="1024" />

    
    <glyph glyph-name="change" unicode="&#58904;" d="M892.419 556.036c4.16 10.040 1.86 21.595-5.824 29.281l-126.469 126.469-37.997-37.997 80.603-80.603h-606.828v-53.735h671.691c10.867 0 20.665 6.545 24.822 16.586zM894.464 270.771h-671.691c-10.867 0-20.664-6.546-24.822-16.586-4.16-10.040-1.86-21.595 5.824-29.281l126.469-126.469 37.997 37.996-80.603 80.603h606.828v53.735z"  horiz-adv-x="1024" />

    
    <glyph glyph-name="check" unicode="&#58915;" d="M397.697 125.986c-9.028 0-18.061 3.436-24.901 10.33l-238.36 238.308c-13.783 13.807-13.783 36.018 0 49.828 13.738 13.709 36.044 13.709 49.753 0l213.534-213.478 441.051 441.024c13.687 13.812 36.018 13.812 49.734 0 13.786-13.763 13.786-36.016 0-49.777l-465.91-465.961c-6.896-6.842-15.872-10.277-24.903-10.277v0z"  horiz-adv-x="1024" />

    
    <glyph glyph-name="backward-btn" unicode="&#58941;" d="M512.292 666.216l-385.077-309.895 385.078-302.561zM896.786 666.212l-385.077-309.895 385.076-302.561z"  horiz-adv-x="1024" />

    


  </font>
</defs>
</svg>
